<svg width="32" height="32" viewBox="0 0 32 32" fill="none" xmlns="http://www.w3.org/2000/svg">
<g clip-path="url(#clip0_1498_3326)">
<path d="M0.531927 23.4667C0.531927 24.6449 1.48707 25.6 2.66525 25.6C2.93247 25.599 3.19707 25.5472 3.44497 25.4475C4.70576 26.4128 6.48499 26.9163 8.67164 26.9163C9.00122 26.9163 9.34366 26.9008 9.69082 26.8784C11.2396 30.0432 13.4743 32 15.9986 32C18.5228 32 20.7575 30.0432 22.3068 26.88C22.6546 26.9024 22.9964 26.9178 23.326 26.9178C25.5126 26.9178 27.2919 26.4144 28.5527 25.449C28.8005 25.5482 29.0649 25.5994 29.3319 25.6C30.2735 25.5973 31.102 24.9776 31.3705 24.0751C31.639 23.1726 31.2842 22.2007 30.4972 21.6837C30.5718 19.9664 29.9078 18.0176 28.5564 16C29.9078 13.9829 30.5719 12.0341 30.4972 10.3162C31.4192 9.72121 31.7378 8.52273 31.2329 7.54842C30.728 6.57412 29.5651 6.14334 28.5473 6.55354C27.0982 5.44476 24.9585 4.95356 22.3073 5.12636C20.7597 1.95895 18.524 0 15.9986 0C13.4732 0 11.2375 1.95895 9.6882 5.12641C7.03807 4.95467 4.8994 5.44639 3.44818 6.55359C2.43104 6.1467 1.27113 6.57811 0.767079 7.55078C0.263025 8.52346 0.579377 9.7199 1.49831 10.3163C1.42472 12.0331 2.08923 13.9819 3.44072 16C2.08923 18.0176 1.42472 19.9664 1.49993 21.6838C0.896727 22.0763 0.532609 22.747 0.531927 23.4667ZM1.59861 23.4667C1.59861 22.8776 2.07616 22.4 2.6653 22.4C3.25444 22.4 3.73198 22.8775 3.73198 23.4667C3.73198 24.0558 3.25444 24.5334 2.6653 24.5334C2.38238 24.5334 2.11107 24.421 1.91103 24.2209C1.71099 24.0209 1.59861 23.7496 1.59861 23.4667ZM10.3501 6.25068C11.7699 6.42069 13.1688 6.73468 14.525 7.18777C13.5704 7.61382 12.6381 8.08838 11.732 8.60965C10.8226 9.13449 9.94172 9.7072 9.09302 10.3254C9.37263 8.928 9.79386 7.5627 10.3501 6.25068ZM22.9037 10.3254C22.0552 9.70715 21.1745 9.13438 20.2652 8.60965C19.3604 8.08901 18.4298 7.61445 17.477 7.18777C18.8319 6.73489 20.2292 6.42095 21.6477 6.25068C22.2036 7.56275 22.6244 8.928 22.9037 10.3254ZM21.6471 25.7494C20.2273 25.5794 18.8285 25.2654 17.4722 24.8123C18.4268 24.3862 19.3591 23.9117 20.2652 23.3904C21.1746 22.8656 22.0555 22.2929 22.9042 21.6747C22.6246 23.0721 22.2034 24.4373 21.6471 25.7494ZM19.732 9.53388C20.9347 10.2261 22.0845 11.0063 23.1719 11.8683C23.3681 13.2368 23.4661 14.6176 23.4653 16C23.4663 17.3825 23.3684 18.7633 23.1725 20.1318C22.0848 20.9937 20.9348 21.774 19.732 22.4662C18.5329 23.1597 17.2852 23.7653 15.9986 24.2784C14.7119 23.7651 13.4642 23.159 12.2653 22.4651C11.0625 21.7729 9.91275 20.9926 8.82528 20.1307C8.43486 17.39 8.43486 14.6079 8.82528 11.8672C9.9128 11.0056 11.0626 10.2257 12.2653 9.53383C13.4653 8.83981 14.7141 8.23377 16.0018 7.72048C17.2874 8.23404 18.534 8.84008 19.732 9.53388ZM24.372 12.8763C25.4357 13.818 26.4018 14.8645 27.2557 16C26.403 17.1353 25.4381 18.1818 24.3757 19.1238C24.4804 18.0858 24.5326 17.0432 24.532 16C24.5323 14.9568 24.4798 13.9142 24.3747 12.8763H24.372ZM7.62527 19.1238C6.56126 18.1823 5.59509 17.1357 4.74151 16C5.5942 14.8647 6.55905 13.8182 7.62149 12.8763C7.41169 14.9535 7.41169 17.0466 7.62149 19.1238H7.62527ZM11.7351 23.3904C12.64 23.911 13.5706 24.3856 14.5234 24.8123C13.1685 25.2652 11.7711 25.5791 10.3527 25.7494C9.79664 24.4373 9.37563 23.0721 9.09617 21.6747C9.94377 22.2929 10.8236 22.8656 11.7319 23.3904H11.7351ZM15.9986 30.9334C13.9954 30.9334 12.1751 29.3446 10.8327 26.7675C12.6003 26.5169 14.3335 26.0653 15.9986 25.4214C17.6644 26.0656 19.3983 26.5172 21.1666 26.7675C19.8216 29.3446 18.0018 30.9334 15.9986 30.9334ZM29.332 24.5334C28.7429 24.5334 28.2653 24.0558 28.2653 23.4667C28.2653 22.8775 28.7428 22.4 29.332 22.4C29.9211 22.4 30.3987 22.8775 30.3987 23.4667C30.3987 24.0558 29.9211 24.5334 29.332 24.5334ZM29.4439 21.3445C29.4061 21.3445 29.3703 21.3334 29.3319 21.3334C28.1537 21.3334 27.1986 22.2885 27.1986 23.4667C27.2006 23.9436 27.3639 24.4058 27.6621 24.7781C26.5005 25.5445 24.805 25.9088 22.7741 25.8325C23.4353 24.1806 23.904 22.4579 24.1709 20.6987C25.5503 19.5879 26.7987 18.3235 27.8919 16.9301C28.7924 18.2375 29.3282 19.7613 29.4439 21.3445ZM30.3986 8.53333C30.3986 9.12242 29.9211 9.60002 29.3319 9.60002C28.7428 9.60002 28.2652 9.12247 28.2652 8.53333C28.2652 7.94419 28.7428 7.46664 29.3319 7.46664C29.9211 7.46664 30.3986 7.94424 30.3986 8.53333ZM27.6621 7.22189C27.364 7.59419 27.2006 8.05641 27.1986 8.53333C27.1986 9.71155 28.1537 10.6666 29.3319 10.6666C29.3703 10.6666 29.406 10.6576 29.4439 10.6555C29.3283 12.2388 28.7926 13.7626 27.8919 15.0699C26.7985 13.6764 25.55 12.4121 24.1703 11.3013C23.9031 9.54201 23.4339 7.81932 22.7719 6.16748C24.8045 6.09069 26.501 6.45334 27.6621 7.22189ZM15.9986 1.06669C18.0018 1.06669 19.8221 2.65548 21.1645 5.23255C19.3978 5.48334 17.6655 5.93496 16.0013 6.57868C14.3355 5.93448 12.6016 5.48287 10.8333 5.23255C12.1757 2.65548 13.9954 1.06669 15.9986 1.06669ZM2.66525 7.4667C3.25433 7.4667 3.73193 7.94424 3.73193 8.53338C3.73193 9.12252 3.25439 9.60007 2.66525 9.60007C2.07611 9.60007 1.59856 9.12252 1.59856 8.53338C1.59856 7.94424 2.07616 7.4667 2.66525 7.4667ZM2.55329 10.6555C2.59113 10.6555 2.62688 10.6666 2.6653 10.6666C3.84352 10.6666 4.79862 9.7115 4.79862 8.53333C4.79662 8.05641 4.63328 7.59414 4.33514 7.22189C5.4962 6.45549 7.19165 6.09174 9.22314 6.16748C8.56194 7.81942 8.09321 9.54212 7.82635 11.3013C6.44704 12.4121 5.19864 13.6762 4.10529 15.0693C3.20447 13.7623 2.66871 12.2386 2.55329 10.6555ZM4.10529 16.9307C5.19916 18.3237 6.44788 19.5878 7.8274 20.6987C8.09457 22.4581 8.56362 24.181 9.2253 25.833C7.19543 25.9098 5.49888 25.5445 4.33729 24.7781C4.63464 24.4055 4.7972 23.9433 4.79862 23.4667C4.79862 22.2884 3.84347 21.3334 2.6653 21.3334C2.62688 21.3334 2.59118 21.343 2.55329 21.3445C2.66892 19.7614 3.20463 18.2378 4.10529 16.9307Z" fill="white"/>
</g>
<defs>
<clipPath id="clip0_1498_3326">
<rect width="32" height="32" fill="white"/>
</clipPath>
</defs>
</svg>
