<svg width="20" height="19" viewBox="0 0 20 19" fill="none" xmlns="http://www.w3.org/2000/svg">
<g clip-path="url(#clip0_1434_3477)">
<path d="M9.81818 0.0255737C4.39364 0.0255737 0 4.34557 0 9.67357C0 13.9371 2.81291 17.5527 6.71318 18.8274C7.20409 18.9182 7.38409 18.6196 7.38409 18.3635C7.38409 18.1344 7.37591 17.5273 7.37182 16.723C4.64073 17.3048 4.06473 15.4287 4.06473 15.4287C3.618 14.3151 2.97245 14.0173 2.97245 14.0173C2.08309 13.4192 3.04118 13.4315 3.04118 13.4315C4.02709 13.4986 4.545 14.4256 4.545 14.4256C5.42045 15.9008 6.84327 15.4745 7.40455 15.2282C7.49291 14.6039 7.74573 14.1793 8.02636 13.9379C5.84591 13.6966 3.55418 12.8669 3.55418 9.17039C3.55418 8.11739 3.93464 7.25666 4.56464 6.58166C4.45418 6.33785 4.12282 5.35685 4.65055 4.02812C4.65055 4.02812 5.47282 3.76957 7.35055 5.0173C8.136 4.80294 8.97055 4.69657 9.80509 4.69166C10.6396 4.69657 11.4742 4.80294 12.2596 5.0173C14.1251 3.76957 14.9474 4.02812 14.9474 4.02812C15.4751 5.35685 15.1437 6.33785 15.0455 6.58166C15.6715 7.25666 16.0519 8.11739 16.0519 9.17039C16.0519 12.8768 13.7569 13.6925 11.5724 13.9298C11.916 14.2194 12.2351 14.8109 12.2351 15.715C12.2351 17.0061 12.2228 18.0436 12.2228 18.3569C12.2228 18.6098 12.3946 18.9117 12.8978 18.8151C16.8259 17.5486 19.6364 13.9306 19.6364 9.67357C19.6364 4.34557 15.2403 0.0255737 9.81818 0.0255737Z" fill="white"/>
</g>
<defs>
<clipPath id="clip0_1434_3477">
<rect width="20" height="19" fill="white"/>
</clipPath>
</defs>
</svg>
