<svg width="32" height="32" viewBox="0 0 32 32" fill="none" xmlns="http://www.w3.org/2000/svg">
<path d="M25.2667 19.7132C24.6387 18.4039 22.392 16.5865 20.2214 14.8305C19.0107 13.8519 17.8667 12.9265 17.1374 12.1972C16.9547 12.0132 16.6814 11.9545 16.4401 12.0412C15.9908 12.2039 15.7134 12.3292 15.4948 12.4265C15.1615 12.5759 15.0495 12.6265 14.6001 12.6719C14.4014 12.6919 14.2228 12.7985 14.1121 12.9639C13.1694 14.3732 12.1934 14.2532 11.5414 14.0345C11.3334 13.9652 11.2961 13.8759 11.2761 13.7905C11.1361 13.2052 11.8388 11.8425 12.7494 10.9319C14.9161 8.76386 16.0334 8.22117 18.3934 9.27586C21.0707 10.4732 23.7534 11.4105 23.7801 11.4199C24.1308 11.5412 24.5081 11.3572 24.6294 11.0092C24.7494 10.6612 24.5667 10.2812 24.2187 10.1599C24.192 10.1505 21.5627 9.23186 18.9387 8.05717C15.8814 6.69048 14.204 7.59049 11.808 9.98786C10.896 10.8999 9.65733 12.7452 9.97733 14.0985C10.1146 14.6745 10.52 15.1012 11.1226 15.2999C12.6333 15.7985 14.012 15.3212 15.0386 13.9585C15.4626 13.8932 15.6933 13.7972 16.04 13.6412C16.1653 13.5852 16.312 13.5199 16.5066 13.4412C17.2693 14.1572 18.2986 14.9905 19.3826 15.8665C21.3426 17.4519 23.5653 19.2492 24.0653 20.2892C24.312 20.8025 24.0466 21.1372 23.8666 21.2905C23.6026 21.5172 23.2413 21.5892 23.0453 21.4519C22.8293 21.3039 22.548 21.2945 22.3253 21.4279C22.1013 21.5612 21.976 21.8132 22.004 22.0719C22.0493 22.4959 21.6613 22.7385 21.4933 22.8225C21.0666 23.0385 20.6213 23.0012 20.4546 22.8465C20.268 22.6732 20 22.6225 19.7626 22.7105C19.5253 22.7999 19.36 23.0185 19.336 23.2719C19.296 23.7092 18.972 24.1292 18.5493 24.2932C18.3453 24.3705 18.0493 24.4172 17.784 24.1745C17.6186 24.0252 17.3893 23.9678 17.1746 24.0198C16.9573 24.0731 16.7826 24.2305 16.7066 24.4398C16.6813 24.5065 16.624 24.6665 16 24.6665C15.556 24.6665 14.7573 24.3665 14.3666 24.1078C13.8986 23.7998 10.964 21.6105 8.42933 19.4878C8.07333 19.1878 7.45733 18.5451 6.91333 17.9771C6.43064 17.4731 5.98933 17.0158 5.76264 16.8238C5.47864 16.5838 5.05864 16.6198 4.82264 16.9025C4.58533 17.1838 4.61995 17.6052 4.90133 17.8425C5.10802 18.0172 5.50802 18.4398 5.94933 18.8998C6.54402 19.5211 7.15864 20.1638 7.57202 20.5105C10.0547 22.5892 13.0387 24.8332 13.6333 25.2238C14.124 25.5465 15.1813 25.9998 16 25.9998C16.6573 25.9998 17.1627 25.8491 17.5133 25.5545C17.9826 25.7372 18.516 25.7385 19.0293 25.5385C19.636 25.3038 20.1346 24.8305 20.4173 24.2572C20.9426 24.3692 21.544 24.2905 22.0906 24.0159C22.6253 23.7466 23.012 23.3345 23.204 22.8532C23.7346 22.8812 24.2813 22.6932 24.7333 22.3052C25.4987 21.6505 25.7093 20.6319 25.2667 19.7132Z" fill="white"/>
<path d="M13.3333 8.6665H7.33331C6.96531 8.6665 6.66663 8.96519 6.66663 9.33319C6.66663 9.70119 6.96531 9.99988 7.33331 9.99988H13.3333C13.7013 9.99988 14 9.70119 14 9.33319C14 8.96519 13.7013 8.6665 13.3333 8.6665Z" fill="white"/>
<path d="M27.22 18.2944C27.0133 17.9891 26.6 17.9051 26.2947 18.1131L24.3454 19.4224C24.04 19.6277 23.9587 20.0424 24.164 20.3477C24.2934 20.5384 24.504 20.6424 24.7187 20.6424C24.8454 20.6424 24.9747 20.6064 25.0894 20.5291L27.0387 19.2198C27.344 19.0144 27.4253 18.5998 27.22 18.2944Z" fill="white"/>
<path d="M23.0813 21.4758C22.604 21.0998 20.4693 18.9144 19.1493 17.5384C18.8946 17.2718 18.472 17.2624 18.2066 17.5184C17.9399 17.7731 17.9319 18.1958 18.1866 18.4611C18.5293 18.8184 21.5519 21.9691 22.2546 22.5238C22.3759 22.6198 22.5226 22.6665 22.6666 22.6665C22.8626 22.6665 23.0586 22.5785 23.1919 22.4118C23.42 22.1238 23.3707 21.7038 23.0813 21.4758Z" fill="white"/>
<path d="M20.4173 22.8131C19.6186 22.1744 17.612 20.0424 17.1586 19.5491C16.9079 19.2771 16.4879 19.2611 16.2159 19.5091C15.9452 19.7584 15.9266 20.1811 16.1759 20.4517C16.1999 20.4771 18.5946 23.0624 19.5839 23.8544C19.7066 23.9517 19.8546 23.9998 19.9999 23.9998C20.1946 23.9998 20.3892 23.9131 20.5212 23.7504C20.7507 23.4624 20.704 23.0424 20.4173 22.8131Z" fill="white"/>
<path d="M17.764 24.1559C16.8133 23.3545 14.868 21.2839 14.488 20.8772C14.236 20.6079 13.8133 20.5932 13.5453 20.8452C13.276 21.0972 13.2626 21.5185 13.5133 21.7879C14.06 22.3732 15.9213 24.3465 16.904 25.1759C17.0293 25.2812 17.1813 25.3332 17.3333 25.3332C17.5226 25.3332 17.712 25.2519 17.844 25.0959C18.0813 24.8132 18.0453 24.3932 17.764 24.1559Z" fill="white"/>
<path d="M7.792 7.51584C6.64931 6.43315 2.08 6.08246 0.706687 6.00115C0.517375 5.99184 0.342687 6.05446 0.209375 6.18115C0.076 6.30646 0 6.48246 0 6.66646V18.6665C0 19.0345 0.298687 19.3332 0.666687 19.3332H4.66669C4.95469 19.3332 5.21069 19.1478 5.3 18.8732C5.39731 18.5745 7.69469 11.5238 7.99731 8.05715C8.01469 7.85446 7.94 7.65446 7.792 7.51584ZM4.18 17.9998H1.33331V7.38115C3.476 7.55046 5.788 7.91846 6.628 8.32646C6.27469 11.2465 4.676 16.4345 4.18 17.9998Z" fill="white"/>
<path d="M31.3333 7.33301C26.0986 7.33301 23.1946 8.67301 23.0733 8.72901C22.9 8.81032 22.7706 8.96101 22.7173 9.14369C22.664 9.32638 22.6906 9.52238 22.7906 9.68501C23.6146 11.0117 26.1946 18.3797 26.6906 20.177C26.7706 20.4663 27.0333 20.6663 27.3333 20.6663H31.3333C31.7013 20.6663 32 20.3676 32 19.9996V7.99963C32 7.63032 31.7013 7.33301 31.3333 7.33301ZM30.6667 19.333H27.832C27.2 17.2743 25.3333 11.9063 24.292 9.6877C25.3093 9.34238 27.4947 8.74901 30.6667 8.67438V19.333Z" fill="white"/>
</svg>
