<svg width="24" height="24" viewBox="0 0 24 24" fill="none" xmlns="http://www.w3.org/2000/svg">
<g clip-path="url(#clip0_1383_3433)">
<path d="M15 14.2496C15.828 14.2496 16.5 14.9216 16.5 15.7496C16.5 16.5776 15.828 17.2496 15 17.2496L12.75 17.2496L14.25 17.2496C15.075 17.2496 15.75 17.9246 15.75 18.7496C15.75 19.5746 15.075 20.2496 14.25 20.2496L6.75 20.2496C5.1 20.2496 3.75 18.8996 3.75 17.2496L3.75 16.4996L3.75 10.5296C3.75 10.0406 3.9885 9.58313 4.3875 9.30263L11.82 4.08413C12.465 3.55913 13.41 3.66413 13.92 4.32413C14.445 4.96913 14.34 5.91413 13.68 6.42413L11.385 8.24963L22.5 8.24963C23.325 8.24963 24 8.92463 24 9.74963C24 10.5746 23.325 11.2496 22.5 11.2496L12.75 11.2496L15.75 11.2496C16.578 11.2496 17.25 11.9216 17.25 12.7496C17.25 13.5776 16.578 14.2496 15.75 14.2496L13.5 14.2496" fill="#9C96A8"/>
<path d="M0.75 8.24963L3.75 8.24963C4.164 8.24963 4.5 8.54813 4.5 8.91563L4.5 19.5821C4.5 19.9511 4.164 20.2496 3.75 20.2496L0.749999 20.2496C0.335999 20.2496 -5.11489e-07 19.9511 -4.95425e-07 19.5836L-2.91118e-08 8.91563C-1.30478e-08 8.54813 0.336 8.24963 0.75 8.24963Z" fill="#635C77"/>
</g>
<defs>
<clipPath id="clip0_1383_3433">
<rect width="24" height="24" fill="white" transform="translate(24) rotate(90)"/>
</clipPath>
</defs>
</svg>
