<svg width="195" height="40" viewBox="0 0 195 40" fill="none" xmlns="http://www.w3.org/2000/svg">
<g clip-path="url(#clip0_127_2385)">
<path d="M16.566 17.0817L17.8335 20.8252H14.9742L16.3154 17.0817H16.566ZM23.4046 22.8297H21.3117V23.5666H26.4701V22.8297H24.4068V16.9343H26.4701V16.1974H21.3117V16.9343H23.4046V22.8297ZM13.9867 23.5666L14.6942 21.5916H18.0987L18.762 23.5666H19.8526L17.1997 16.1974H15.6964L12.9993 23.5666H13.9867ZM30.5822 30.582H9.41783V9.41772H30.5822V30.582Z" fill="white"/>
<path d="M22.0634 40.0001C31.5107 39.0274 39.0273 31.5108 40.0001 22.0635H37.5093C36.625 30.258 30.4201 36.7871 22.0634 37.7157V40.0001Z" fill="white"/>
<path d="M0 22.0635C0.972734 31.5108 8.48931 39.0274 17.9366 40.0001V37.7157C9.57995 36.7871 3.38983 30.2433 2.49079 22.0635H0Z" fill="white"/>
<path d="M40.0001 17.9366C39.0273 8.48931 31.5107 0.972734 22.0634 0V2.28445C30.4201 3.21297 36.6102 9.75681 37.5093 17.9366H40.0001Z" fill="white"/>
<path d="M17.9366 0C8.48932 0.972734 0.972734 8.48932 0 17.9366H2.49079C3.37509 9.74208 9.57996 3.21297 17.9366 2.28445V0Z" fill="white"/>
</g>
<g clip-path="url(#clip1_127_2385)">
<path d="M157.916 14.3223H158.424L160.994 21.9125H155.196L157.916 14.3223ZM94.7439 14.3223H95.2519L97.8218 21.9125H92.0245L94.7439 14.3223ZM75.0512 14.0833H79.4739C81.1772 14.0833 82.2231 14.8602 82.2231 16.8624C82.2231 18.9243 81.1174 19.6116 79.4739 19.6116H79.1153L75.0512 14.3223V14.0833ZM65.698 21.1953C65.698 24.1537 64.3533 26.126 61.5144 26.126C58.6457 26.126 57.3308 24.1537 57.3308 21.1953V18.8047C57.3308 15.6969 58.6457 13.8741 61.5144 13.8741C64.413 13.8741 65.698 15.7866 65.698 18.8047V21.1953ZM193.147 25.1697H192.968L186.215 12.5294H183.346V27.4707H185.199V14.8005H185.378L192.101 27.4707H195V12.5294H193.147V25.1697ZM172.289 14.0235V25.9766H168.046V27.4707H178.505V25.9766H174.321V14.0235H178.505V12.5294H168.046V14.0235H172.289ZM151.192 27.4707H153.194L154.629 23.4664H161.531L162.876 27.4707H165.088L159.709 12.5294H156.661L151.192 27.4707ZM137.446 19.1334V12.5294H135.414V27.4707H137.446V20.6873H145.006V27.4707H147.038V12.5294H145.006V19.1334H137.446ZM109.117 14.0235V25.9766H104.874V27.4707H115.333V25.9766H111.149V14.0235H115.333V12.5294H104.874V14.0235H109.117ZM88.0203 27.4707H90.0224L91.4568 23.4664H98.3597L99.7044 27.4707H101.916L96.5368 12.5294H93.4888L88.0203 27.4707ZM84.4642 16.8624C84.4642 13.9936 82.5816 12.5294 79.5336 12.5294H72.5411V14.0534L76.8143 19.6116H72.5411V27.4707H74.5731V21.1655H78.0096L82.8506 27.4707H85.1515L80.2209 21.0459C82.8207 20.6873 84.4642 19.5518 84.4642 16.8624ZM125.523 13.904C127.226 13.904 128.212 14.5315 129.019 16.2946L130.842 15.5774C129.677 13.3063 128.182 12.3501 125.523 12.3501C120.831 12.3501 119.038 15.3981 119.038 19.9702C119.038 24.602 120.861 27.65 125.314 27.65C128.033 27.65 129.557 26.5443 130.752 24.3928L129.019 23.7055C128.272 25.4088 127.286 26.0961 125.403 26.0961C122.445 26.0961 121.339 24.1238 121.339 21.1953V18.8047C121.339 15.9659 122.355 13.904 125.523 13.904V13.904ZM61.6041 12.3501C57.4205 12.3501 55 15.1292 55 20.0897C55 24.8709 57.2711 27.65 61.4546 27.65C65.6083 27.65 67.9691 24.8709 67.9691 19.9104C67.9691 15.1292 65.7577 12.3501 61.6041 12.3501V12.3501Z" fill="white"/>
</g>
<defs>
<clipPath id="clip0_127_2385">
<rect width="40" height="40" fill="white"/>
</clipPath>
<clipPath id="clip1_127_2385">
<rect width="140" height="15.2999" fill="white" transform="translate(55 12.3501)"/>
</clipPath>
</defs>
</svg>
