<svg width="32" height="32" viewBox="0 0 32 32" fill="none" xmlns="http://www.w3.org/2000/svg">
<path d="M29.0667 2.9334C28.6667 2.5334 28.1333 2.40007 27.6 2.5334C24.6667 3.20007 21.8667 4.26673 19.3333 5.7334C16.6667 7.20007 14.2667 8.9334 12.1333 11.0667C10.2667 10.8001 8.53334 11.3334 7.20001 12.5334L2.66667 17.0667C2.40001 17.3334 2.40001 17.8667 2.66667 18.1334C2.80001 18.2667 3.06667 18.4001 3.33334 18.4001L8.00001 17.7334C9.20001 17.6001 10.4 18.0001 11.2 18.8001L13.2 20.8001C14 21.6001 14.4 22.8001 14.2667 24.0001L13.6 28.5334C13.4667 28.9334 13.8667 29.3334 14.2667 29.4667C14.5333 29.4667 14.8 29.4667 14.9333 29.2001L19.4667 24.6667C20.6667 23.4667 21.2 21.7334 20.9333 20.0001C23.0667 17.8667 24.8 15.4667 26.2667 12.8001C27.7333 10.1334 28.8 7.46673 29.4667 4.5334C29.6 3.86673 29.3333 3.3334 29.0667 2.9334ZM24.8 12.0001C23.3333 14.6667 21.6 17.0667 19.4667 19.2001C19.3333 19.3334 19.2 19.7334 19.2 20.0001C19.6 21.3334 19.2 22.6667 18.2667 23.6001L15.4667 26.4001L15.7333 24.2667C16 22.6667 15.4667 20.9334 14.2667 19.7334L12.2667 17.7334C11.0667 16.5334 9.33334 16.0001 7.73334 16.2667L5.60001 16.5334L8.40001 13.8667C9.33334 12.8001 10.6667 12.4001 12 12.8001C12.2667 12.9334 12.5333 12.8001 12.8 12.5334C14.9333 10.4001 17.3333 8.66673 20 7.20007C22.5333 5.86673 25.2 4.80007 27.8667 4.00007C27.2 6.80007 26.1333 9.46673 24.8 12.0001ZM15.8667 12.0001C14.6667 13.2001 14.6667 14.9334 15.8667 16.1334C17.0667 17.3334 18.9333 17.3334 20 16.1334C21.2 14.9334 21.2 13.2001 20 12.0001C18.8 10.8001 16.9333 10.8001 15.8667 12.0001ZM18.9333 13.0667C19.4667 13.6001 19.4667 14.4001 18.9333 14.9334C18.4 15.4667 17.6 15.4667 17.0667 14.9334C16.5333 14.4001 16.5333 13.6001 17.0667 13.0667C17.4667 12.5334 18.4 12.5334 18.9333 13.0667ZM11.8667 23.0667C12.1333 23.3334 12.1333 23.8667 11.8667 24.1334L6.80001 29.2001C6.53334 29.4667 6.00001 29.4667 5.73334 29.2001C5.46668 28.9334 5.46668 28.4001 5.73334 28.1334L10.8 23.0667C11.0667 22.6667 11.6 22.6667 11.8667 23.0667ZM5.73334 24.2667C5.46668 24.5334 4.93334 24.5334 4.66667 24.2667C4.40001 24.0001 4.40001 23.4667 4.66667 23.2001L7.73334 20.0001C8.00001 19.7334 8.53334 19.7334 8.80001 20.0001C9.06667 20.2667 9.06667 20.8001 8.80001 21.0667L5.73334 24.2667Z" fill="white"/>
</svg>
