<svg width="20" height="17" viewBox="0 0 20 17" fill="none" xmlns="http://www.w3.org/2000/svg">
<g clip-path="url(#clip0_1434_3479)">
<path fill-rule="evenodd" clip-rule="evenodd" d="M17.6267 4.71381C17.8806 10.4849 13.6554 16.9175 6.1753 16.9175C3.98121 16.9182 1.83475 16.2776 0 15.0744C2.13569 15.3331 4.28557 14.7205 5.96404 13.3748C4.2015 13.3423 2.71388 12.156 2.2013 10.5262C2.80477 10.6441 3.42737 10.6202 4.02004 10.4564C2.08213 10.0596 0.745505 8.28289 0.78884 6.38222C1.33189 6.68896 1.95348 6.87381 2.61434 6.89412C0.81931 5.67396 0.311473 3.2614 1.3671 1.41829C3.35376 3.89992 6.32223 5.53312 9.67057 5.70443C9.08351 3.13816 10.995 0.666687 13.5951 0.666687C14.7134 0.667181 15.7801 1.13715 16.5352 1.96201C17.4391 1.78077 18.3046 1.44398 19.0933 0.966649C18.7968 1.91217 18.1678 2.71824 17.3227 3.23567C18.1222 3.13943 18.9024 2.92183 19.6364 2.59037C19.098 3.41198 18.4174 4.13104 17.6267 4.71381Z" fill="white"/>
</g>
<defs>
<clipPath id="clip0_1434_3479">
<rect width="20" height="17" fill="white"/>
</clipPath>
</defs>
</svg>
